  <svg
    viewBox="0 0 100 100"
    fill="#9a54ae"
    xmlns="http://www.w3.org/2000/svg">
    <path d="M83.2432 48.3009C82.7158 48.1043 82.1404 48.0769 81.5968 48.2227C81.0533 48.3681 80.5684 48.6796 80.2094 49.1135C78.1874 51.5955 75.6386 53.5954 72.7484 54.9675C69.8582 56.3397 66.6991 57.0498 63.5007 57.0462C51.589 57.0462 41.9062 47.3408 41.9062 35.414C41.8973 32.4629 42.4977 29.5417 43.6694 26.834C44.8414 24.1263 46.5596 21.6905 48.716 19.6796C49.1256 19.2914 49.4039 18.785 49.5128 18.2309C49.6213 17.6768 49.5551 17.1025 49.3227 16.5879C49.0911 16.073 48.7037 15.644 48.2156 15.3615C47.7272 15.079 47.1626 14.9572 46.6017 15.0133C37.9344 15.8305 29.8858 19.8655 24.0381 26.3252C18.1904 32.7848 14.9665 41.2018 15.0003 49.9215C15.0003 69.2631 30.7113 85 50.0214 85C69.104 85 84.4704 70.023 84.999 50.9021C85.0148 50.3391 84.854 49.7851 84.539 49.3183C84.224 48.8518 83.7707 48.4958 83.2432 48.3009Z" />
  </svg>